<svg xmlns="http://www.w3.org/2000/svg" viewBox="0 0 141.73 141.73"><defs><style>.cls-1,.cls-4{fill:none;}.cls-1,.cls-3,.cls-4{stroke:#fff;stroke-miterlimit:10;}.cls-1{stroke-width:1.2px;}.cls-2,.cls-3{fill:#fff;}.cls-3{stroke-width:0.6px;}.cls-4{stroke-width:3.52px;}</style></defs><title>bass-pad</title><g id="Calque_2" data-name="Calque 2"><circle class="cls-1" cx="70.87" cy="70.86" r="60.51"/><path class="cls-2" d="M58.71,19A.9.9,0,0,1,59,17.73l11.58-7.38L59,3a.9.9,0,1,1,1-1.51L72.72,9.59a.9.9,0,0,1,0,1.51L60,19.24A.9.9,0,0,1,58.71,19Z"/><path class="cls-3" d="M21.28,105.53h99.18s-15.14,25-49.59,25.84A56.66,56.66,0,0,1,21.28,105.53Z"/><line class="cls-4" x1="24.66" y1="79.23" x2="66.2" y2="79.23"/><line class="cls-4" x1="24.66" y1="58.87" x2="66.2" y2="58.87"/><line class="cls-4" x1="75.54" y1="79.23" x2="117.08" y2="79.23"/><line class="cls-4" x1="75.54" y1="58.87" x2="117.08" y2="58.87"/><line class="cls-4" x1="52.19" y1="69.05" x2="93.73" y2="69.05"/><line class="cls-4" x1="52.19" y1="48.7" x2="93.73" y2="48.7"/></g></svg>