<svg xmlns="http://www.w3.org/2000/svg" viewBox="0 0 141.73 141.73"><defs><style>.cls-1{fill:none;stroke:#fff;stroke-miterlimit:10;stroke-width:3.24px;}.cls-2{fill:#fff;}</style></defs><title>button-preset-circle</title><g id="Calque_2" data-name="Calque 2"><circle class="cls-1" cx="70.87" cy="70.87" r="68.44"/><path class="cls-2" d="M43.34,47.39c5.21,0,5.22-8.09,0-8.09s-5.22,8.09,0,8.09Z"/><path class="cls-2" d="M43.34,74.91c5.21,0,5.22-8.09,0-8.09s-5.22,8.09,0,8.09Z"/><path class="cls-2" d="M43.34,102.44c5.21,0,5.22-8.09,0-8.09s-5.22,8.09,0,8.09Z"/><path class="cls-2" d="M70.87,47.39c5.21,0,5.22-8.09,0-8.09s-5.22,8.09,0,8.09Z"/><path class="cls-2" d="M70.87,74.91c5.21,0,5.22-8.09,0-8.09s-5.22,8.09,0,8.09Z"/><path class="cls-2" d="M70.87,102.44c5.21,0,5.22-8.09,0-8.09s-5.22,8.09,0,8.09Z"/><path class="cls-2" d="M98.39,47.39c5.21,0,5.22-8.09,0-8.09s-5.22,8.09,0,8.09Z"/><path class="cls-2" d="M98.39,74.91c5.21,0,5.22-8.09,0-8.09s-5.22,8.09,0,8.09Z"/><path class="cls-2" d="M98.39,102.44c5.21,0,5.22-8.09,0-8.09s-5.22,8.09,0,8.09Z"/></g></svg>