<svg xmlns="http://www.w3.org/2000/svg" viewBox="0 0 141.73 141.73"><defs><style>.cls-1{fill:none;stroke:#fff;stroke-miterlimit:10;stroke-width:3.25px;}.cls-2{fill:#fff;}</style></defs><title>button-random-circle</title><g id="Calque_2" data-name="Calque 2"><circle class="cls-1" cx="70.87" cy="70.87" r="68.65"/><path class="cls-2" d="M60.5,51.88c5.22,0,5.23-8.12,0-8.12s-5.23,8.12,0,8.12Z"/><path class="cls-2" d="M34.21,90.55c5.22,0,5.23-8.12,0-8.12s-5.23,8.12,0,8.12Z"/><path class="cls-2" d="M89.89,113.75c5.22,0,5.23-8.12,0-8.12s-5.23,8.12,0,8.12Z"/><path class="cls-2" d="M72.87,92.09c5.22,0,5.23-8.12,0-8.12s-5.23,8.12,0,8.12Z"/><path class="cls-2" d="M103.81,68.89c5.22,0,5.23-8.12,0-8.12s-5.23,8.12,0,8.12Z"/><path class="cls-2" d="M80.61,78.17c5.22,0,5.23-8.12,0-8.12s-5.23,8.12,0,8.12Z"/><path class="cls-2" d="M88.34,42.6c5.22,0,5.23-8.12,0-8.12s-5.23,8.12,0,8.12Z"/></g></svg>