<svg xmlns="http://www.w3.org/2000/svg" viewBox="0 0 141.73 141.73"><defs><style>.cls-1{fill:#fff;}</style></defs><title>button-random</title><g id="Calque_2" data-name="Calque 2"><path class="cls-1" d="M60.73,52.3c5.11,0,5.11-7.94,0-7.94s-5.11,7.94,0,7.94Z"/><path class="cls-1" d="M35,90.1c5.11,0,5.11-7.94,0-7.94s-5.11,7.94,0,7.94Z"/><path class="cls-1" d="M89.46,112.78c5.11,0,5.11-7.94,0-7.94s-5.11,7.94,0,7.94Z"/><path class="cls-1" d="M72.83,91.62c5.11,0,5.11-7.94,0-7.94s-5.11,7.94,0,7.94Z"/><path class="cls-1" d="M103.07,68.94c5.11,0,5.11-7.94,0-7.94s-5.11,7.94,0,7.94Z"/><path class="cls-1" d="M80.39,78c5.11,0,5.11-7.94,0-7.94S75.27,78,80.39,78Z"/><path class="cls-1" d="M87.95,43.23c5.11,0,5.11-7.94,0-7.94s-5.11,7.94,0,7.94Z"/></g></svg>