<svg xmlns="http://www.w3.org/2000/svg" viewBox="0 0 141.73 141.73"><defs><style>.cls-1,.cls-2,.cls-3,.cls-4{fill:none;stroke:#fff;stroke-miterlimit:10;}.cls-1,.cls-2,.cls-3{stroke-width:1.02px;}.cls-2{stroke-dasharray:11.75 11.75;}.cls-3{stroke-dasharray:11.73 11.73;}.cls-4{stroke-width:3.07px;}</style></defs><title>chord-sequencer-1</title><g id="Calque_2" data-name="Calque 2"><path class="cls-1" d="M11.28,76.93q-.31-3-.31-6"/><path class="cls-2" d="M12.09,59.28A59.9,59.9,0,1,1,88.54,128.1"/><path class="cls-1" d="M82.85,129.55q-2.9.59-5.92.9"/><path class="cls-1" d="M76.93,130.45q-3,.31-6,.31"/><path class="cls-3" d="M59.3,129.65A60,60,0,0,1,13.63,88.53"/><path class="cls-1" d="M12.18,82.85q-.59-2.9-.9-5.92"/><line class="cls-4" x1="51.75" y1="71.09" x2="31.99" y2="71.11"/><line class="cls-4" x1="51.73" y1="62.03" x2="31.97" y2="62.03"/><line class="cls-4" x1="80.79" y1="80.17" x2="61.03" y2="80.19"/><line class="cls-4" x1="80.77" y1="71.11" x2="61.02" y2="71.11"/><line class="cls-4" x1="109.82" y1="89.24" x2="90.06" y2="89.25"/><line class="cls-4" x1="109.8" y1="80.18" x2="90.04" y2="80.18"/></g></svg>