<svg xmlns="http://www.w3.org/2000/svg" viewBox="0 0 141.73 141.73"><defs><style>.cls-1,.cls-2,.cls-3,.cls-4{fill:none;stroke:#fff;stroke-miterlimit:10;}.cls-1,.cls-2,.cls-3{stroke-width:1.02px;}.cls-2{stroke-dasharray:11.75 11.75;}.cls-3{stroke-dasharray:11.73 11.73;}.cls-4{stroke-width:3.07px;}</style></defs><title>chord-sequencer-2</title><g id="Calque_2" data-name="Calque 2"><path class="cls-1" d="M11.27,76.93q-.31-3-.31-6"/><path class="cls-2" d="M12.07,59.28A59.9,59.9,0,1,1,88.52,128.1"/><path class="cls-1" d="M82.83,129.55q-2.9.59-5.92.9"/><path class="cls-1" d="M76.92,130.45q-3,.31-6,.31"/><path class="cls-3" d="M59.28,129.65A60,60,0,0,1,13.61,88.53"/><path class="cls-1" d="M12.16,82.85q-.59-2.9-.9-5.92"/><line class="cls-4" x1="51.7" y1="80.21" x2="31.94" y2="80.22"/><line class="cls-4" x1="51.68" y1="71.15" x2="31.93" y2="71.15"/><line class="cls-4" x1="80.74" y1="80.21" x2="60.98" y2="80.22"/><line class="cls-4" x1="80.72" y1="71.15" x2="60.96" y2="71.15"/><line class="cls-4" x1="109.77" y1="80.21" x2="90.01" y2="80.22"/><line class="cls-4" x1="109.75" y1="71.15" x2="89.99" y2="71.15"/></g></svg>