<svg xmlns="http://www.w3.org/2000/svg" viewBox="0 0 141.73 141.73"><defs><style>.cls-1,.cls-2,.cls-3,.cls-4{fill:none;stroke:#fff;stroke-miterlimit:10;}.cls-1,.cls-2,.cls-3{stroke-width:1.02px;}.cls-2{stroke-dasharray:11.75 11.75;}.cls-3{stroke-dasharray:11.73 11.73;}.cls-4{stroke-width:3.07px;}</style></defs><title>chord-sequencer-3</title><g id="Calque_2" data-name="Calque 2"><path class="cls-1" d="M11.28,76.93q-.31-3-.31-6"/><path class="cls-2" d="M12.09,59.28A59.9,59.9,0,1,1,88.54,128.1"/><path class="cls-1" d="M82.85,129.55q-2.9.59-5.92.9"/><path class="cls-1" d="M76.93,130.45q-3,.31-6,.31"/><path class="cls-3" d="M59.3,129.65A60,60,0,0,1,13.63,88.53"/><path class="cls-1" d="M12.18,82.85q-.59-2.9-.9-5.92"/><line class="cls-4" x1="53.55" y1="90.52" x2="33.79" y2="90.53"/><line class="cls-4" x1="53.53" y1="81.46" x2="33.77" y2="81.46"/><line class="cls-4" x1="82.6" y1="81.46" x2="62.84" y2="81.48"/><line class="cls-4" x1="82.58" y1="72.4" x2="62.82" y2="72.4"/><line class="cls-4" x1="111.61" y1="72.39" x2="91.86" y2="72.41"/><line class="cls-4" x1="111.6" y1="63.33" x2="91.84" y2="63.33"/></g></svg>