<svg xmlns="http://www.w3.org/2000/svg" viewBox="0 0 141.73 141.73"><defs><style>.cls-1,.cls-3{fill:none;stroke:#fff;stroke-miterlimit:10;}.cls-1{stroke-width:1.21px;}.cls-2{fill:#fff;}.cls-3{stroke-width:0.61px;}</style></defs><title>dist-loop</title><g id="Calque_2" data-name="Calque 2"><circle class="cls-1" cx="70.87" cy="70.87" r="61.22"/><path class="cls-2" d="M58.57,18.36a.91.91,0,0,1,.28-1.25L70.57,9.65,58.85,2.18a.91.91,0,1,1,1-1.53L72.74,8.88a.91.91,0,0,1,0,1.53L59.82,18.64a.91.91,0,0,1-1.26-.28Z"/><polyline class="cls-2" points="31.96 72.48 37.3 86.21 42.65 72.48 48 86.21 53.35 72.48 58.7 86.21 64.04 72.48 69.39 86.21 74.74 72.48 80.09 86.21 85.44 72.48 90.78 86.21 96.13 72.48 101.48 86.21 106.84 72.48 112.2 86.21"/><polyline class="cls-3" points="31.96 72.48 37.3 86.21 42.65 72.48 48 86.21 53.35 72.48 58.7 86.21 64.04 72.48 69.39 86.21 74.74 72.48 80.09 86.21 85.44 72.48 90.78 86.21 96.13 72.48 101.48 86.21 106.84 72.48 112.2 86.21"/><polyline class="cls-2" points="31.96 82.57 37.3 96.3 42.65 82.57 48 96.3 53.35 82.57 58.7 96.3 64.04 82.57 69.39 96.3 74.74 82.57 80.09 96.3 85.44 82.57 90.78 96.3 96.13 82.57 101.48 96.3 106.84 82.57 112.2 96.3"/><polyline class="cls-3" points="31.96 82.57 37.3 96.3 42.65 82.57 48 96.3 53.35 82.57 58.7 96.3 64.04 82.57 69.39 96.3 74.74 82.57 80.09 96.3 85.44 82.57 90.78 96.3 96.13 82.57 101.48 96.3 106.84 82.57 112.2 96.3"/><polyline class="cls-2" points="31.96 53.1 37.3 66.83 42.65 53.1 48 66.83 53.35 53.1 58.7 66.83 64.04 53.1 69.39 66.83 74.74 53.1 80.09 66.83 85.44 53.1 90.78 66.83 96.13 53.1 101.48 66.83 106.84 53.1 112.2 66.83"/><polyline class="cls-3" points="31.96 53.1 37.3 66.83 42.65 53.1 48 66.83 53.35 53.1 58.7 66.83 64.04 53.1 69.39 66.83 74.74 53.1 80.09 66.83 85.44 53.1 90.78 66.83 96.13 53.1 101.48 66.83 106.84 53.1 112.2 66.83"/><polyline class="cls-2" points="31.96 63.2 37.3 76.93 42.65 63.2 48 76.93 53.35 63.2 58.7 76.93 64.04 63.2 69.39 76.93 74.74 63.2 80.09 76.93 85.44 63.2 90.78 76.93 96.13 63.2 101.48 76.93 106.84 63.2 112.2 76.93"/><polyline class="cls-3" points="31.96 63.2 37.3 76.93 42.65 63.2 48 76.93 53.35 63.2 58.7 76.93 64.04 63.2 69.39 76.93 74.74 63.2 80.09 76.93 85.44 63.2 90.78 76.93 96.13 63.2 101.48 76.93 106.84 63.2 112.2 76.93"/></g></svg>