<svg xmlns="http://www.w3.org/2000/svg" viewBox="0 0 141.73 141.73"><defs><style>.cls-1{fill:none;}.cls-1,.cls-3,.cls-4{stroke:#000;stroke-miterlimit:10;stroke-width:1.18px;}.cls-2,.cls-4{fill:#000;}</style></defs><title>fx-glitch</title><g id="Calque_2" data-name="Calque 2"><path class="cls-3" d="M71.46,77.93c-1,0-1.43,1.2-2.57.74.2-.17.35-.4.51-.41a1.52,1.52,0,0,0,1.17-.64C70.83,77.31,71.11,77.37,71.46,77.93Z"/><path class="cls-4" d="M49.21,94.7l0,0,0,0Z"/><path class="cls-4" d="M73.62,52.38h0v-.08Z"/><path class="cls-4" d="M54.68,53.35v0h0Z"/><path class="cls-4" d="M74.55,67.64s0-.1,0-.15l0,0v.07Z"/><path class="cls-4" d="M62,73.07l0,.08v.1l0,0S62,73.12,62,73.07Z"/><path class="cls-4" d="M75.82,79s0,0,0-.06v0l0,0S75.82,79,75.82,79Z"/><path class="cls-4" d="M54.57,75.86l0,.07s0-.08,0-.12Z"/><path class="cls-4" d="M40.49,83.86h0l0,0-.06,0Z"/><path class="cls-4" d="M40.47,85.08v0l0,0v.06Z"/><path class="cls-4" d="M39.61,78.17s0-.09,0-.13h0v.07Z"/><path class="cls-4" d="M59.84,90.37V92.3l-.14.07a12.4,12.4,0,0,1-.27-2.18,10.22,10.22,0,0,1,.47-2.68c.28-.76.64-.35.88.43,0,.07.06.16.09.17,1.42.13,1.61,2.21,1.38,5a6.83,6.83,0,0,0,.19,1.23c.34-.41.65-.74.94-1.11s.41-.85.59-.79c1.58.52,2-2.66,2.73-4.88.49-1.55,1.71-2.37,2.39-1.32.86,1.32,1.71,2.57,2.82,1.82.25-.17.64.21.86.65.83,1.69,1.87,2.16,2.84,3.06a12.87,12.87,0,0,1,.93,1.08c.51.6,1,1.21,1.53,1.8.1.12.26.1.32.28.79,2.11,1.83,1.67,2.83,1.73A23.24,23.24,0,0,1,84,97c.32.06.64.4,1,.6v.59a2.76,2.76,0,0,1-.7.2c-1.4,0-2.8,0-4.2,0-.27,0-.63.1-.79-.25-.65-1.45-1.59-1.57-2.24-2.73-1-1.77-2.18-2.29-3.25-3.55-.17-.2-.39-.29-.52-.6-.51-1.27-1-1.75-1.58-.24-.09.24-.46.11-.63-.13-.59-.86-1.15-1.86-1.73-2.79-1.26-2-2.37-.66-2.48,3,0,.27,0,.54-.08,1l-.82-.3c-.16.74-.32,1.57-.52,2.34-.36,1.43-.55,1.52-1.22.75s-.78-.72-1.85.44c-.76-1.43-.66-3.39-.45-5.62l-1.4-.48C59.92,88.47,59.86,88.56,59.84,90.37Z"/><path class="cls-4" d="M72.14,82.9c.78-.11,1.45.25,1.8,2.22a1.75,1.75,0,0,0,.33.77q1.61,1.93,3.23,3.79a6.82,6.82,0,0,0,1.57,1.6,7.47,7.47,0,0,0,2.52.64c.57.07,1.16-.13,1.76,0-.44.44-1,.27-1.13,1.81,0,.23-.25.56-.36.52-1.1-.4-2.37,1.08-3.28-1.57-1.29-.27-2.14-2.95-3.33-3.57-1-.53-1.71-2.13-2.52-3.35a12.39,12.39,0,0,1-.56-2.92Z"/><path class="cls-4" d="M42,82.77l0-.08c.34.39.55.19.76-.6a11.21,11.21,0,0,1,.75-1.76l.28.27q0,1.12.05,2.24c0,1.45.44,2.2,1,1.75a10.13,10.13,0,0,0,.93-1c.19.54.31.89.42,1.24s.17.63.28.89c.44,1,.79.94,1.12-.34a23.09,23.09,0,0,1,.85-3.55c1.21-2.35,2.67-2.9,4.2-2.54h.18v0l-.18.46-2.4.85.22,3.46-1-2.22a8.37,8.37,0,0,0-1.69,4.15,4.59,4.59,0,0,1-.57,1.36c-.33.58-.62.52-.9-.34-.65-2-.66-2-1.54-1.06-.1.11-.24.29-.33.2-.59-.6-1,.07-1.28.94-.43-1.21-.82-2.26-1.18-3.38A4.87,4.87,0,0,1,42,82.77Z"/><path class="cls-4" d="M90.51,91.48h5.42c.2,1.07,0,1.68-.42,1.69q-2.31.07-4.62,0C90.52,93.16,90.34,92.59,90.51,91.48Z"/><path class="cls-4" d="M90.33,89.45c-.07-1.61,0-2.31.59-2.3,1.15,0,2.3,0,3.45,0,.23,0,.5-.2.68,0a7,7,0,0,1,.59,1.41c-.21.29-.42.83-.64.84C93.46,89.49,91.93,89.45,90.33,89.45Z"/><path class="cls-4" d="M84.78,88.45c.12-.27.24-.75.38-.78a31.62,31.62,0,0,1,3.8-.55c.17,0,.36.71.54,1.1-.17.39-.34,1.11-.5,1.11-1.37,0-2.74-.15-4.12-.25Z"/><path class="cls-4" d="M50.74,94.67v3a9.75,9.75,0,0,0,1.87.4c.12,0,.25-.77.44-1.39l-1-1,0-.38,1.28.15c0,1,0,1.93,0,2.81A3.28,3.28,0,0,1,53,99.42c-.25.53-1.95.38-2.21-.12C50.2,98.14,50.17,97.22,50.74,94.67Z"/><path class="cls-4" d="M84.82,92.42c1.3-.59,2.58-1.58,3.93-1,.16,1,0,1.74-.42,1.74-1.17,0-2.35-.1-3.52-.16Z"/><path class="cls-4" d="M96.08,95.47H90.39c.6-.92,3.81-1.4,5.19-.92C95.71,94.6,95.83,95,96.08,95.47Z"/><path class="cls-4" d="M89.87,100.47a4.16,4.16,0,0,1-4.51.42c.26-.38.43-.84.6-.84C87.18,100.05,88.42,99.58,89.87,100.47Z"/><path class="cls-4" d="M94.36,100.64a2.89,2.89,0,0,1-3.86,0C91.2,99.68,93.57,99.68,94.36,100.64Z"/><path class="cls-4" d="M52.84,79.36c.53.26.44,1.28.46,2.18l0,0L52.89,84c.62.59,1.08.87,1.51-.16l0,0c.14,1,.1,1.68-.41,1.61a13,13,0,0,1-1.35-.33,11.38,11.38,0,0,1,0-2.46,6.49,6.49,0,0,0,0-2.81Z"/><path class="cls-4" d="M65.81,93.72,67,94l-.35,3-1.19-.51Z"/><path class="cls-4" d="M88.58,95.31H84.68C85.41,94.39,87.44,94.29,88.58,95.31Z"/><path class="cls-4" d="M53.2,91.8c.82,1.5,1.45,1.65,2.1-.09l.29,2.17c-.83.17-1.67-1.52-2.39,1.43Z"/><path class="cls-4" d="M57.07,92.06l1.83,1.33-1,2.19C57.58,94.32,57,93.53,57.07,92.06Z"/><path class="cls-4" d="M59.84,90.37c0-1.81.08-1.9.68-1.12l.8,1.17-.85.33-.31,4,0,0Z"/><path class="cls-4" d="M57.27,80.83v3.63c-.8-.05-.23-2.56-1.13-3l1.17-.51Z"/><path class="cls-4" d="M58.64,90.17c-.24,1.6-.57.86-.91.24C58.08,89.25,58.08,89.25,58.64,90.17Z"/><path class="cls-4" d="M54.37,83.81l0,0-1.06-.14V81.5l0,0c.28,1.11.77,1.1,1.21,1.35l0,.18Z"/><path class="cls-4" d="M60.16,94.77h1.39c-.51,1.35-.91,0-1.37,0Z"/><path class="cls-4" d="M57.3,80.9l-.58-.8c.66-.72.66-.72,1,1.23l-.43-.5Z"/><path class="cls-4" d="M54.47,83.07l0-.18a3.81,3.81,0,0,1,.58-2.49c0,.59-.08,1.17-.07,1.76C55,83.22,54.82,83.33,54.47,83.07Z"/><path class="cls-4" d="M63.72,95.49l.15,1c-.09.07-.21.24-.28.17a1.13,1.13,0,0,1-.17-.59C63.42,95.9,63.56,95.76,63.72,95.49Z"/><path class="cls-4" d="M75.8,78.88c.16,1.37.57,1.86,1.13,2s1.29.59,1.94.7a30.93,30.93,0,0,0,5,.64c5.82,0,11.65-.06,17.47-.09,2.8,0,5.59,0,8.39,0a1.21,1.21,0,0,1,1,.45,2.55,2.55,0,0,1-.66.24c-1.8.13-3.61.25-5.41.35-2.32.12-4.64.26-7,.3-2.13,0-4.26-.11-6.39-.09-2,0-3.95.17-5.92.25s-3.73.16-5.59.14c-.37,0-.74-.45-1.1-.8-.68-.66-1.31-1.51-2.1-1.37-.63.12-.77-.6-.74-2.69Z"/><path class="cls-4" d="M62.75,63.64c.25-.48.45-1.62.83-.94.7,1.27,1.52,1,2.4,1.58l-.59.59c.36,1.35.63.92.83.27.29-1,.66-1.48,1.16-1.62a1.09,1.09,0,0,0,.62-.69c.53-1.42,1.09-1.61,1.74-.38l.74-1.5a4.58,4.58,0,0,1,.22.7c.2,1.37.33,2.83.59,4.13.33,1.63.6,1.64,1.09.31.1-.27.17-.59.35-1.21l.51,3.19a13.29,13.29,0,0,1,.46-1.38,4.63,4.63,0,0,1,.55-.77l.29,1.62,0,0c-.28-.16-.58-.74-.76.39-.08.5-.23.94-.37,1.54-.49-.55-.86-1.48-1.48-.87s-.82-.72-1-1.85c-.21-1.59-.55-2.49-1.27-1.45l-.61-2.16c-.15.08-.31.05-.36.22a3.25,3.25,0,0,1-1.57,2.19.63.63,0,0,0-.4.45c-.49,2.9-1.5,1.54-2.31,1.67a6.38,6.38,0,0,1-1.78-.18c-.08,2.23,0,4.25-.68,5.73l0,.05A34.36,34.36,0,0,0,61.81,67a3.51,3.51,0,0,1,.88-3.25,1.79,1.79,0,0,0-.05.24,1.15,1.15,0,0,0,0,.24l1.25.15C63.31,63.07,63.31,63.07,62.75,63.64Z"/><path class="cls-4" d="M83.55,53.27a37.27,37.27,0,0,0,4.1.79c2.56.2,5.12.26,7.68.34,1.77.05,3.53,0,5.3.07a8.07,8.07,0,0,1,1.6.38v.64c-.73,0-1.45.08-2.18.08l-7.42,0a38.22,38.22,0,0,1-5.23-.08A6.65,6.65,0,0,1,83.55,53.27Z"/><path class="cls-4" d="M88.91,74.63a40.53,40.53,0,0,1-5.43.49c-1.75-.06-3.51.62-5.34-.16l.38-5.72c.4-.27,1-.25,1.12.95.47,3.28,1.71,3.31,2.67,3.17,2.13-.32,4.21,1.06,6.33.52.09,0,.19.22.29.34Z"/><path class="cls-4" d="M40.46,85.06c-.57.6-1.06.54-1.61-.43a1.74,1.74,0,0,0-2.44-1,15.2,15.2,0,0,0-1.87,1.15L34,81.3l2.13-2.22c.36,1,.68,2,1.05,2.91.66,1.53.72,1.5,1.47.34l.76-1.15.3,2.87.8-.2,0-.07-.06,1.35ZM35.77,83.3A7.23,7.23,0,0,0,36.11,82a2.71,2.71,0,0,0-.24-.8,3.78,3.78,0,0,0-.34.89A5.65,5.65,0,0,0,35.77,83.3Z"/><path class="cls-4" d="M79.92,46.06c-.16-1.93-.61-2.94-1.46-2.72a.47.47,0,0,1-.46-.1c-1.32-1.25-2.63-2.52-4-3.84l.46-1.58A8,8,0,0,1,77.79,41c.21.37.49.75.73.71.88-.16,1.34,1.16,1.77,2.65.24.82.49,1.61.76,2.48-.58,1.41-.81-.35-1.17-.83Z"/><path class="cls-4" d="M39.6,78l-2.39-1.87c.46-.88.91-1.75,1.36-2.58s1.12-.37,1.16,1.24c0,1.08-.1,2.18-.16,3.27Z"/><path class="cls-4" d="M75.06,63.9a16.49,16.49,0,0,1,.51,1.94c.08.59,0,1.28.07,2.59l.84-2.22-.25-1.95c.2.07.36,0,.39.15A16.06,16.06,0,0,1,77,66.13c.16,1.13.35,2.13.94,2l-2.3,1.21C75.16,67.72,75.12,67.34,75.06,63.9Z"/><path class="cls-4" d="M99.17,59.5H89.33v-.41h9.86Z"/><path class="cls-4" d="M77.36,59.14,76.27,57.2l1.56-1.83L79.19,59c-.74,1.39-1.3,1.22-1.84-.05.44.8.52-.07.55-.78a4.23,4.23,0,0,0-.24-1,4.58,4.58,0,0,0-.41,1A4.41,4.41,0,0,0,77.36,59.14Z"/><path class="cls-4" d="M38.1,66.14l.45-1.31L39.94,67C39.49,68.62,39,68.53,38.1,66.14Z"/><path class="cls-4" d="M81.07,52.18c1.44-2.19,1.74-2.24,2.17-1a14.61,14.61,0,0,1-1.52,1.33C81.53,52.62,81.29,52.3,81.07,52.18Z"/><path class="cls-4" d="M84.87,64.84a2.39,2.39,0,0,1-.15.51c-.37.46-.73.57-1-.47a1.81,1.81,0,0,1,.15-.87C84.32,63.59,84.72,63.53,84.87,64.84Z"/><path class="cls-4" d="M77.36,59.14a4.41,4.41,0,0,1-.11-1,4.58,4.58,0,0,1,.41-1,4.23,4.23,0,0,1,.24,1c0,.71-.1,1.59-.55.78Z"/><path class="cls-4" d="M37.39,66.37l1.25,2.45C37.7,68.28,37.67,68.24,37.39,66.37Z"/><path class="cls-4" d="M75,76a8.39,8.39,0,0,1-.58-.71,4.45,4.45,0,0,1,.11-.62,5.64,5.64,0,0,1,.61.5Z"/><path class="cls-4" d="M82.19,68.55,81.71,68c0-.16.09-.47.1-.46.16.15.32.34.47.52Z"/><path class="cls-4" d="M40.43,85.13l.47-.64.1.21-.36,1.21c-.08-.41-.13-.64-.17-.87Z"/><path class="cls-4" d="M39.6,68.84l.64-.65.08.49-.66.56Z"/><path class="cls-4" d="M53.34,81.5v2.15l1.06.14c-.43,1-.89.75-1.51.16Z"/><path class="cls-4" d="M54.4,73.54c-.5,1.09-.78.91-1.12.51a2.92,2.92,0,0,0-1.2-.85c-1-.37-2-.64-3-1l.16-.6c-.25-1.16-.39-2.84-.79-3.38-.71-1-1.57-.79-2.33.26-.46.63-.93,1.22-1.41,1.85a2.26,2.26,0,0,1,.19-2c1.32-1.7,2.7-2.29,4.13-.9a3.91,3.91,0,0,1,.91,1.62,3.47,3.47,0,0,0,1.52,2.25A36.56,36.56,0,0,1,54.4,73.54Z"/><path class="cls-4" d="M68.22,46.77l1,1.14c-.13.22-.21.4-.23.37-.56-.8-.92-.19-1.06,1.07-.22,2-.71,2.71-1.53,2.54-.39-.08-.7.24-1,1-.72,1.69-1,1.51-1.64-1l.48.28c.11.06.22.09.39.16l.72-2.88C66.31,49,67.58,50.47,68.22,46.77Z"/><path class="cls-4" d="M54.71,53.41c.22-.54.44-1.53.67-1.55a3,3,0,0,1,2.28.44c.9.7,1.65.92,2.31-1l2.33,2.46c-.52,1.31-.56,1.29-2.15-1.53a2.52,2.52,0,0,0-.45.7c-.51,1.57-1.11,1.42-1.77.65a6.69,6.69,0,0,0-1-.88c-.81-.64-1.57-.5-2.28.69Z"/><path class="cls-4" d="M58.93,75.85l.1-2.49c.55.87.55.87.5,2.79Z"/><path class="cls-4" d="M75.27,50.39l-.93-2.58C75,47.86,75.32,48.36,75.27,50.39Z"/><path class="cls-4" d="M73.65,52.31a2.94,2.94,0,0,1-.86-2.13c.73-.08.68,1.27.83,2.2Z"/><path class="cls-4" d="M69.35,49l.8-.44a5.74,5.74,0,0,1-.06.85C69.83,50.36,69.6,50.09,69.35,49Z"/><path class="cls-4" d="M58.27,73.33c-.08.47-.16.95-.25,1.41a.91.91,0,0,1-.19-.18c.06-.49.12-1,.19-1.44Z"/></g></svg>
