<svg xmlns="http://www.w3.org/2000/svg" viewBox="0 0 141.73 141.73"><defs><style>.cls-1,.cls-3,.cls-4{fill:none;stroke:#000;stroke-miterlimit:10;}.cls-1{stroke-width:1.02px;stroke-dasharray:11.76 11.76;}.cls-2{fill:#000;}.cls-3{stroke-width:0.17px;}.cls-4{stroke-width:2.05px;}</style></defs><title>fx-water</title><g id="Calque_2" data-name="Calque 2"><path class="cls-2" d="M84.95,73.07c-1,3.59-.86,7,3.47,7"/><path class="cls-3" d="M84.95,73.07c-1,3.59-.86,7,3.47,7"/><path class="cls-2" d="M88.42,80.09c9,0,.14-15,.14-15h0a38,38,0,0,0-3.61,8"/><path class="cls-3" d="M88.42,80.09c9,0,.14-15,.14-15h0a38,38,0,0,0-3.61,8"/><path class="cls-2" d="M67.53,49.85c-1,3.59-.86,7,3.47,7"/><path class="cls-3" d="M67.53,49.85c-1,3.59-.86,7,3.47,7"/><path class="cls-2" d="M71,56.87c9,0,.14-15,.14-15h0a38,38,0,0,0-3.61,8"/><path class="cls-3" d="M71,56.87c9,0,.14-15,.14-15h0a38,38,0,0,0-3.61,8"/><path class="cls-2" d="M50.11,73.07c-1,3.59-.86,7,3.47,7"/><path class="cls-3" d="M50.11,73.07c-1,3.59-.86,7,3.47,7"/><path class="cls-2" d="M53.58,80.09c9,0,.14-15,.14-15h0a38,38,0,0,0-3.61,8"/><path class="cls-3" d="M53.58,80.09c9,0,.14-15,.14-15h0a38,38,0,0,0-3.61,8"/><line class="cls-4" x1="47.56" y1="89.03" x2="59.56" y2="89.03"/><line class="cls-4" x1="64.98" y1="65.81" x2="76.98" y2="65.81"/><line class="cls-4" x1="82.4" y1="89.03" x2="94.4" y2="89.03"/></g></svg>
