<svg xmlns="http://www.w3.org/2000/svg" viewBox="0 0 141.73 141.73"><defs><style>.cls-1,.cls-2{fill:none;stroke:#fff;stroke-miterlimit:10;}.cls-1{stroke-width:3.9px;}.cls-2{stroke-width:1.3px;}</style></defs><title>guitar-shaker</title><g id="Calque_2" data-name="Calque 2"><path class="cls-1" d="M64.21,25.44C64.21,33,47.64,33,47.64,40.58s16.57,7.57,16.57,15.14S47.64,63.29,47.64,70.86,64.21,78.43,64.21,86s-16.57,7.57-16.57,15.14,16.57,7.57,16.57,15.14"/><path class="cls-1" d="M77.1,112.44c0-7.17,16.57-7.17,16.57-14.34S77.1,90.94,77.1,83.77,93.67,76.6,93.67,69.43,77.1,62.26,77.1,55.1s16.57-7.17,16.57-14.34S77.1,33.58,77.1,26.41"/><path class="cls-2" d="M104.75,98.3c0-4.51,13.15-4.51,13.15-9s-13.15-4.51-13.15-9,13.15-4.51,13.15-9-13.15-4.51-13.15-9,13.15-4.52,13.15-9-13.15-4.52-13.15-9"/><path class="cls-2" d="M37,44.15c0,4.51-13.15,4.51-13.15,9S37,57.68,37,62.19s-13.15,4.51-13.15,9S37,75.73,37,80.24s-13.15,4.52-13.15,9S37,93.79,37,98.3"/></g></svg>