<svg xmlns="http://www.w3.org/2000/svg" viewBox="0 0 141.73 141.73"><defs><style>.cls-1,.cls-3{fill:none;stroke:#fff;stroke-miterlimit:10;}.cls-1{stroke-width:1.21px;}.cls-2{fill:#fff;}.cls-3{stroke-width:3.56px;}</style></defs><title>harmo-2</title><g id="Calque_2" data-name="Calque 2"><circle class="cls-1" cx="70.87" cy="70.87" r="61.24"/><path class="cls-2" d="M58.56,18.34a.91.91,0,0,1,.28-1.25L70.57,9.62,58.84,2.16a.91.91,0,1,1,1-1.53L72.75,8.86a.91.91,0,0,1,0,1.53L59.82,18.62a.91.91,0,0,1-1.26-.28Z"/><path class="cls-3" d="M31.94,65C42,65,42,71.88,52,71.88S62,65,72.07,65s10,6.87,20.07,6.87,10-6.87,20.07-6.87"/><path class="cls-3" d="M31.94,78.74c10,0,10,6.87,20.06,6.87s10-6.87,20.07-6.87,10,6.87,20.07,6.87,10-6.87,20.07-6.87"/></g></svg>