<svg xmlns="http://www.w3.org/2000/svg" viewBox="0 0 141.73 141.73"><defs><style>.cls-1,.cls-3{fill:none;stroke:#fff;stroke-miterlimit:10;}.cls-1{stroke-width:1.18px;}.cls-2{fill:#fff;}.cls-3{stroke-width:3.48px;}</style></defs><title>harmo-arpeggiator</title><g id="Calque_2" data-name="Calque 2"><circle class="cls-1" cx="70.87" cy="70.87" r="59.84"/><path class="cls-2" d="M58.85,19.55a.89.89,0,0,1,.27-1.23L70.57,11,59.12,3.73a.89.89,0,1,1,1-1.5l12.63,8a.89.89,0,0,1,0,1.5l-12.63,8a.89.89,0,0,1-1.23-.27Z"/><line class="cls-3" x1="27.74" y1="76.78" x2="36.15" y2="76.78"/><line class="cls-3" x1="37.61" y1="88.62" x2="46.01" y2="88.62"/><line class="cls-3" x1="47.48" y1="64.94" x2="55.88" y2="64.94"/><line class="cls-3" x1="57.34" y1="76.78" x2="65.75" y2="76.78"/><line class="cls-3" x1="67.21" y1="53.1" x2="75.62" y2="53.1"/><line class="cls-3" x1="77.08" y1="76.78" x2="85.49" y2="76.78"/><line class="cls-3" x1="86.95" y1="64.94" x2="95.36" y2="64.94"/><line class="cls-3" x1="96.82" y1="88.62" x2="105.22" y2="88.62"/><line class="cls-3" x1="106.68" y1="76.78" x2="115.09" y2="76.78"/></g></svg>