<svg xmlns="http://www.w3.org/2000/svg" viewBox="0 0 141.73 141.73"><defs><style>.cls-1,.cls-3{fill:none;stroke:#000;stroke-miterlimit:10;}.cls-1{stroke-width:1.2px;}.cls-2{fill:#000;}.cls-3{stroke-width:3.53px;}</style></defs><title>harmo-1</title><g id="Calque_2" data-name="Calque 2"><circle class="cls-1" cx="70.87" cy="70.87" r="60.76"/><path class="cls-2" d="M58.66,18.76a.9.9,0,0,1,.28-1.24l11.63-7.41L58.94,2.7a.9.9,0,1,1,1-1.52L72.73,9.35a.9.9,0,0,1,0,1.52L59.91,19a.9.9,0,0,1-1.25-.28Z"/><path class="cls-3" d="M34.81,76C46,76,46,86.19,57.13,86.19S68.29,76,79.45,76"/><path class="cls-3" d="M111.5,65.76c-11.16,0-11.16-10.22-22.32-10.22S78,65.76,66.87,65.76"/></g></svg>
