<svg xmlns="http://www.w3.org/2000/svg" viewBox="0 0 141.73 141.73"><defs><style>.cls-1,.cls-2,.cls-4{fill:none;stroke:#000;stroke-miterlimit:10;}.cls-1{stroke-width:1.02px;stroke-dasharray:11.76 11.76;}.cls-2{stroke-width:2.39px;}.cls-3{fill:#000;}.cls-4{stroke-width:2.05px;}</style></defs><title>perc-metallic-1</title><g id="Calque_2" data-name="Calque 2"><polyline class="cls-2" points="99.43 90.14 90.05 79.77 80.34 89.83 70.95 79.46 61.24 89.53 51.85 79.16 42.14 89.22"/><polygon class="cls-3" points="75.93 59.03 69.59 58.05 73.61 63.06 71.28 57.08 68.95 63.06 72.97 58.05 66.63 59.03 72.97 60.01 68.95 55 71.28 60.98 73.61 55 69.59 60.01 75.93 59.03"/><polygon class="cls-4" points="75.93 59.03 69.59 58.05 73.61 63.06 71.28 57.08 68.95 63.06 72.97 58.05 66.63 59.03 72.97 60.01 68.95 55 71.28 60.98 73.61 55 69.59 60.01 75.93 59.03"/></g></svg>
