<svg xmlns="http://www.w3.org/2000/svg" viewBox="0 0 141.73 141.73"><defs><style>.cls-1,.cls-10,.cls-11,.cls-12,.cls-13,.cls-14,.cls-15,.cls-16,.cls-17,.cls-18,.cls-2,.cls-3,.cls-4,.cls-5,.cls-6,.cls-7,.cls-8,.cls-9{fill:none;stroke:#000;stroke-miterlimit:10;}.cls-1{stroke-width:1.02px;stroke-dasharray:11.76 11.76;}.cls-10,.cls-11,.cls-12,.cls-13,.cls-14,.cls-15,.cls-16,.cls-17,.cls-18,.cls-2,.cls-3,.cls-4,.cls-5,.cls-6,.cls-7,.cls-8,.cls-9{stroke-width:4.1px;}.cls-3{stroke-dasharray:2.31 2.31;}.cls-4{stroke-dasharray:2.31 2.31;}.cls-5{stroke-dasharray:2.31 2.31;}.cls-6{stroke-dasharray:2.31 2.31;}.cls-7{stroke-dasharray:2.14 2.14;}.cls-8{stroke-dasharray:2.14 2.14;}.cls-9{stroke-dasharray:2.14 2.14;}.cls-10{stroke-dasharray:2.14 2.14;}.cls-11{stroke-dasharray:1.97 1.97;}.cls-12{stroke-dasharray:1.97 1.97;}.cls-13{stroke-dasharray:1.97 1.97;}.cls-14{stroke-dasharray:1.97 1.97;}.cls-15{stroke-dasharray:1.82 1.82;}.cls-16{stroke-dasharray:1.82 1.82;}.cls-17{stroke-dasharray:1.82 1.82;}.cls-18{stroke-dasharray:1.82 1.82;}</style></defs><title>perc-metallic-3</title><g id="Calque_2" data-name="Calque 2"><line class="cls-2" x1="46.96" y1="42.36" x2="47.75" y2="43.01"/><line class="cls-3" x1="49.52" y1="44.49" x2="55.73" y2="49.67"/><polyline class="cls-2" points="56.62 50.41 57.41 51.07 58.2 50.41"/><line class="cls-4" x1="59.97" y1="48.93" x2="66.19" y2="43.75"/><polyline class="cls-2" points="67.07 43.01 67.86 42.36 68.65 43.01"/><line class="cls-5" x1="70.42" y1="44.49" x2="76.64" y2="49.67"/><polyline class="cls-2" points="77.52 50.41 78.31 51.07 79.1 50.41"/><line class="cls-6" x1="80.87" y1="48.93" x2="87.09" y2="43.75"/><polyline class="cls-2" points="87.98 43.01 88.77 42.36 89.55 43.01"/><line class="cls-6" x1="91.33" y1="44.49" x2="97.55" y2="49.67"/><line class="cls-2" x1="98.43" y1="50.41" x2="99.22" y2="51.07"/><line class="cls-2" x1="49.41" y1="58.46" x2="50.15" y2="59.16"/><line class="cls-7" x1="51.71" y1="60.62" x2="57.17" y2="65.74"/><polyline class="cls-2" points="57.95 66.47 58.69 67.17 59.44 66.47"/><line class="cls-8" x1="61" y1="65.01" x2="66.46" y2="59.89"/><polyline class="cls-2" points="67.24 59.16 67.98 58.46 68.73 59.16"/><line class="cls-9" x1="70.29" y1="60.62" x2="75.74" y2="65.74"/><polyline class="cls-2" points="76.52 66.47 77.27 67.17 78.02 66.47"/><line class="cls-10" x1="79.58" y1="65.01" x2="85.04" y2="59.89"/><polyline class="cls-2" points="85.82 59.16 86.56 58.46 87.31 59.16"/><line class="cls-10" x1="88.87" y1="60.62" x2="94.33" y2="65.74"/><line class="cls-2" x1="95.11" y1="66.47" x2="95.86" y2="67.17"/><line class="cls-2" x1="51.49" y1="74.56" x2="52.19" y2="75.31"/><line class="cls-11" x1="53.53" y1="76.75" x2="58.24" y2="81.8"/><polyline class="cls-2" points="58.92 82.52 59.62 83.27 60.31 82.52"/><line class="cls-12" x1="61.66" y1="81.08" x2="66.37" y2="76.03"/><polyline class="cls-2" points="67.05 75.31 67.74 74.56 68.44 75.31"/><line class="cls-13" x1="69.79" y1="76.75" x2="74.5" y2="81.8"/><polyline class="cls-2" points="75.17 82.52 75.87 83.27 76.57 82.52"/><line class="cls-14" x1="77.92" y1="81.08" x2="82.63" y2="76.03"/><polyline class="cls-2" points="83.3 75.31 84 74.56 84.7 75.31"/><line class="cls-14" x1="86.05" y1="76.75" x2="90.76" y2="81.8"/><line class="cls-2" x1="91.44" y1="82.52" x2="92.14" y2="83.27"/><line class="cls-2" x1="54.51" y1="90.66" x2="55.15" y2="91.46"/><line class="cls-15" x1="56.29" y1="92.89" x2="60.27" y2="97.86"/><polyline class="cls-2" points="60.84 98.57 61.48 99.37 62.11 98.57"/><line class="cls-16" x1="63.25" y1="97.15" x2="67.23" y2="92.17"/><polyline class="cls-2" points="67.8 91.46 68.44 90.66 69.08 91.46"/><line class="cls-17" x1="70.21" y1="92.89" x2="74.2" y2="97.86"/><polyline class="cls-2" points="74.77 98.57 75.4 99.37 76.04 98.57"/><line class="cls-18" x1="77.18" y1="97.15" x2="81.17" y2="92.17"/><polyline class="cls-2" points="81.74 91.46 82.38 90.66 83.02 91.46"/><line class="cls-18" x1="84.16" y1="92.89" x2="88.14" y2="97.86"/><line class="cls-2" x1="88.71" y1="98.57" x2="89.35" y2="99.37"/></g></svg>
