<svg xmlns="http://www.w3.org/2000/svg" viewBox="0 0 141.73 141.73"><defs><style>.cls-1,.cls-2{fill:none;stroke:#fff;stroke-miterlimit:10;}.cls-1{stroke-width:3px;}</style></defs><title>perc-shaker</title><g id="Calque_2" data-name="Calque 2"><ellipse class="cls-1" cx="70.78" cy="76.84" rx="23.41" ry="21.13"/><ellipse class="cls-1" cx="70.78" cy="66.39" rx="23.41" ry="21.13"/><path class="cls-2" d="M43.81,98.57c5.38,5.5,15.44,9.21,27,9.21s21.58-3.7,27-9.21"/><path class="cls-2" d="M43.81,44.51c5.38-5.5,15.44-9.21,27-9.21s21.58,3.7,27,9.21"/><path class="cls-2" d="M101.34,107.77A59.09,59.09,0,0,1,70.78,116a59.12,59.12,0,0,1-30.38-8.16"/><path class="cls-2" d="M40.94,35.16a59.23,59.23,0,0,1,29.84-7.84A59.15,59.15,0,0,1,101,35.4"/></g></svg>