<svg xmlns="http://www.w3.org/2000/svg" viewBox="0 0 141.73 141.73"><defs><style>.cls-1,.cls-2,.cls-3{fill:none;stroke:#fff;stroke-miterlimit:10;}.cls-1{stroke-width:1.02px;stroke-dasharray:11.76 11.76;}.cls-2{stroke-width:3.07px;}.cls-3{stroke-width:1.54px;}</style></defs><title>perc-metallic-2</title><g id="Calque_2" data-name="Calque 2"><line class="cls-2" x1="61.92" y1="62.79" x2="59.4" y2="62.34"/><polyline class="cls-2" points="57.41 61.98 54.89 61.52 55.26 64.05"/><polyline class="cls-2" points="55.56 66.06 55.93 68.59 53.41 68.14"/><polyline class="cls-2" points="51.42 67.78 48.9 67.32 49.27 69.86"/><polyline class="cls-2" points="49.57 71.86 49.94 74.39 47.42 73.94"/><polyline class="cls-2" points="45.42 73.58 42.9 73.13 43.28 75.66"/><polyline class="cls-2" points="43.57 77.67 43.94 80.21 41.42 79.75"/><line class="cls-2" x1="39.42" y1="79.39" x2="36.9" y2="78.94"/><polygon class="cls-3" points="77.14 86.34 68.73 85.28 75.42 90.48 70.22 83.78 71.28 92.19 72.34 83.78 67.14 90.48 73.83 85.28 65.42 86.34 73.83 87.39 67.14 82.19 72.34 88.89 71.28 80.48 70.22 88.89 75.42 82.19 68.73 87.39 77.14 86.34"/><line class="cls-2" x1="84.43" y1="58.62" x2="84.06" y2="61.15"/><polyline class="cls-2" points="83.76 63.16 83.39 65.69 85.91 65.24"/><polyline class="cls-2" points="87.9 64.88 90.42 64.42 90.05 66.95"/><polyline class="cls-2" points="89.75 68.96 89.38 71.49 91.9 71.04"/><polyline class="cls-2" points="93.89 70.68 96.41 70.22 96.04 72.76"/><polyline class="cls-2" points="95.74 74.77 95.37 77.3 97.89 76.85"/><polyline class="cls-2" points="99.89 76.49 102.41 76.03 102.04 78.57"/><line class="cls-2" x1="101.75" y1="80.58" x2="101.37" y2="83.11"/></g></svg>
